<svg xmlns="http://www.w3.org/2000/svg" width="40" height="40" fill="none" viewBox="0 0 40 40"><path fill="#f0f0f0" d="M40 28q0 .287-.013.572A12 12 0 0 1 28 40H12q-.352-.001-.7-.021A11.995 11.995 0 0 1 0 28V12C0 5.608 4.998.383 11.3.02Q11.648 0 12 0h16a12 12 0 0 1 1.3.07A12 12 0 0 1 40 12z"/><path fill="#6da544" fill-rule="evenodd" d="M38.224 5.714A12 12 0 0 0 28 0h-8v5.714zM40 17.143H20v-5.714h19.987Q40 11.713 40 12zM.013 28.572h39.974Q40 28.287 40 28v-5.143H0V28q0 .287.013.572m1.763 5.714A12 12 0 0 0 12 40h16a12 12 0 0 0 1.3-.07 12 12 0 0 0 8.924-5.644z" clip-rule="evenodd"/><path fill="#d80027" fill-rule="evenodd" d="M20 0h-8q-.352 0-.7.02C4.998.383 0 5.608 0 12v5.143h20z" clip-rule="evenodd"/><path fill="#f0f0f0" d="m8.76 15.333-1-1.976V9.405l2.5-1.976 2.5 1.976v2.964l1-.988v1.976l-2 1.976zm-5.378-6.06.265.806h.857l-.693.497.265.805-.694-.497-.693.497.265-.805-.693-.497h.857zm2-1.976.265.806h.857l-.693.497.265.805-.694-.497-.693.497.265-.805-.693-.497h.857zm2-1.976.265.805h.857l-.693.498.264.805-.693-.497-.693.497.265-.805-.693-.498h.857zm9.758 3.952-.265.806h-.857l.693.497-.265.805.693-.497.694.497-.265-.805.693-.497h-.857zm-2-1.976-.265.806h-.857l.693.497-.265.805.693-.497.694.497-.265-.805.693-.497h-.857zm-2-1.976-.265.805h-.857l.693.498-.265.805.693-.497.694.497-.265-.805.693-.498h-.857zm-2.88-.988-.264.805H9.14l.693.498-.264.805.693-.497.693.497-.265-.805.693-.498h-.856z"/></svg>