<svg xmlns="http://www.w3.org/2000/svg" width="40" height="40" fill="none" viewBox="0 0 40 40"><path fill="#f0f0f0" d="M40 28a12 12 0 0 1-.166 2 11.9 11.9 0 0 1-1.706 4.439 12.05 12.05 0 0 1-5.794 4.755A11.9 11.9 0 0 1 28 40H12q-.352 0-.7-.02a11.93 11.93 0 0 1-7.13-2.886 12 12 0 0 1-2.298-2.655A12 12 0 0 1 .166 30 12 12 0 0 1 0 28V12a12 12 0 0 1 .101-1.565 11.94 11.94 0 0 1 3.414-6.92A12.1 12.1 0 0 1 7.344.937 11.9 11.9 0 0 1 12 0h16a12 12 0 0 1 1.3.07 11.9 11.9 0 0 1 5.483 2.03 12.1 12.1 0 0 1 3.345 3.461A11.93 11.93 0 0 1 40 12z"/><path fill="#0052b4" fill-rule="evenodd" d="M10.435 0h5.217v17.391H40v5.218H15.652V40h-5.217V22.609H0V17.39h10.435z" clip-rule="evenodd"/></svg>