<svg xmlns="http://www.w3.org/2000/svg" width="40" height="40" fill="none" viewBox="0 0 40 40"><path fill="#d80027" d="M40 28a12 12 0 0 1-.093 1.503l-.008.062a11.93 11.93 0 0 1-2.576 5.99q-.371.459-.785.877l-.053.053-.036.037a12.1 12.1 0 0 1-4.115 2.672A11.9 11.9 0 0 1 28 40H12a12 12 0 0 1-1.565-.101A11.9 11.9 0 0 1 4.799 37.6a12.1 12.1 0 0 1-3.103-3.446l-.006-.01A12 12 0 0 1 .26 30.5 12 12 0 0 1 0 28V12a12 12 0 0 1 .101-1.565 11.94 11.94 0 0 1 3.45-6.957 12 12 0 0 1 3.116-2.23A11.9 11.9 0 0 1 12 0h16a12 12 0 0 1 1.3.07 11.9 11.9 0 0 1 5.483 2.03 12.1 12.1 0 0 1 3.527 3.757A11.93 11.93 0 0 1 40 12z"/><path fill="#f0f0f0" d="m27.638 12.368-1.442 5.05-4.326-.784L19.085 11l-7.523 2.62-.594-1.64L9 11.74l1.483 4.103 5.178-1.3 1.47 4.07-3.578 5.184 6.074 5.085-1.152 1.325L19.25 32l2.878-3.312-3.736-3.751 2.855-3.286 6.365.45 1.449-7.705 1.744.316L32 13.159z"/></svg>