<svg xmlns="http://www.w3.org/2000/svg" width="40" height="40" fill="none" viewBox="0 0 40 40"><path fill="#d80027" d="M40 28a12 12 0 0 1-.064 1.25 11.96 11.96 0 0 1-1.808 5.189 12.1 12.1 0 0 1-3.69 3.69A11.94 11.94 0 0 1 28 40H12a11.94 11.94 0 0 1-6.547-1.942 12.05 12.05 0 0 1-4.939-6.572A11.9 11.9 0 0 1 0 28V12a12 12 0 0 1 .247-2.435 11.9 11.9 0 0 1 1.625-4.004 12.1 12.1 0 0 1 3.69-3.69A11.94 11.94 0 0 1 12 0h16a11.94 11.94 0 0 1 6.835 2.135 12.07 12.07 0 0 1 4.057 4.821A11.9 11.9 0 0 1 40 12z"/><path fill="#0052b4" d="M.02 28.696q-.02-.333-.02-.67V12q0-.35.02-.696h39.96q.02.346.02.696v16q0 .35-.02.696z"/><path fill="#f0f0f0" d="M20 27.5a7.5 7.5 0 1 0 0-15 7.5 7.5 0 0 0 0 15"/></svg>