<svg xmlns="http://www.w3.org/2000/svg" width="40" height="40" fill="none" viewBox="0 0 40 40"><path fill="#d80027" d="M40 28a12 12 0 0 1-.166 2 11.8 11.8 0 0 1-.801 2.727 12 12 0 0 1-.905 1.712 12 12 0 0 1-1.643 2.046l-.036.037a12.04 12.04 0 0 1-4.611 2.851A12 12 0 0 1 28 40H12a12 12 0 0 1-1.65-.112 11.93 11.93 0 0 1-6.382-2.972 12 12 0 0 1-.524-.502l-.05-.05a12.1 12.1 0 0 1-2.286-3.32A11.95 11.95 0 0 1 0 28V12a12.2 12.2 0 0 1 .247-2.435 11.9 11.9 0 0 1 2.509-5.217A12.1 12.1 0 0 1 6.39 1.39 12 12 0 0 1 10.35.113l.017-.003A12 12 0 0 1 12 0h16a12 12 0 0 1 .696.02 12 12 0 0 1 2.39.38 11.9 11.9 0 0 1 4.08 1.974q.692.517 1.303 1.124l.016.017a13 13 0 0 1 .362.378 12 12 0 0 1 2.186 3.38A11.9 11.9 0 0 1 40 12z"/><path fill="#ffd733" d="m20 8.63 2.597 8.022H31l-6.798 4.957 2.596 8.021L20 24.673l-6.798 4.957 2.597-8.021L9 16.652h8.403z"/></svg>